<svg width="58" height="57" viewBox="0 0 58 57" fill="none" xmlns="http://www.w3.org/2000/svg">
<mask id="mask0_6314_2808" style="mask-type:luminance" maskUnits="userSpaceOnUse" x="1" y="0" width="56" height="57">
<path d="M57 0.199951H1V56.2H57V0.199951Z" fill="white"/>
</mask>
<g mask="url(#mask0_6314_2808)">
<path d="M57 29.9818L48.3455 36.2182L51.6545 46.2727L40.9636 46.1454L37.6545 56.2L29 49.9636L20.3455 56.2L17.0364 46.1454L6.34545 46.2727L9.65455 36.2182L1 29.9818L9.65455 23.8727L6.34545 13.8182H17.0364L20.3455 3.76363L29 9.87272L37.6545 3.63635L40.9636 13.6909H51.6545L48.3455 23.7454L57 29.9818Z" fill="#634C9F"/>
<path d="M43.6351 18.1455C47.1987 15.9818 50.5078 13.1818 52.7987 9.87274C53.9442 8.2182 54.9624 6.30911 54.7078 4.40002C54.4533 2.6182 53.1805 1.09093 51.3987 0.836381C50.5078 0.581835 49.6169 0.709108 48.8533 0.963654C48.0896 1.09093 47.326 1.34547 46.8169 1.72729C45.2896 2.74547 44.6533 4.78184 44.1442 6.56365C43.2533 9.87274 42.4896 12.9273 41.9805 16.2364" stroke="#1D1D1B" stroke-width="0.5714" stroke-miterlimit="10" stroke-linecap="round" stroke-linejoin="round"/>
<path d="M39.4366 45.2546L25.5638 44.4909L19.582 32.4L36.1275 7.70911L55.982 20.5637L39.4366 45.2546Z" fill="#FFB709"/>
<path d="M43.6367 18.1455C47.2004 15.9818 50.5094 13.1818 52.8004 9.87274C53.9458 8.2182 54.964 6.30911 54.7094 4.40002C54.4549 2.6182 53.1822 1.09093 51.4004 0.836381C50.5094 0.581835 49.6185 0.709108 48.8549 0.963654C48.0913 1.09093 47.3276 1.34547 46.8185 1.72729C45.2913 2.74547 44.6549 4.78184 44.1458 6.56365C43.8913 7.20002 43.764 7.70911 43.6367 8.47274" stroke="#1D1D1B" stroke-width="0.5714" stroke-miterlimit="10" stroke-linecap="round" stroke-linejoin="round"/>
<path d="M43.5078 26.6727L27.9805 29.0909L28.8715 30.1091L44.3987 27.6909L43.5078 26.6727Z" fill="#1D1D1B"/>
<path d="M38.5472 31C38.2926 30.8727 38.1654 30.8727 38.0381 30.8727C37.529 30.7455 37.0199 30.7455 36.5108 30.8727C36.0017 31.1273 35.3654 31.3818 34.8563 31.7636C34.3472 32.2727 33.9654 32.7818 33.7108 33.2909C33.4563 33.8 33.4563 34.3091 33.5835 34.8182C33.7108 35.3273 33.9654 35.8364 34.3472 36.2182L34.4745 36.3455C35.1108 36.9818 35.7472 37.2364 36.5108 37.2364C37.2745 37.2364 38.1654 36.8546 38.929 36.2182C39.6926 35.4546 40.0745 34.6909 40.2017 33.9273C40.329 33.1636 39.9472 32.4 39.4381 31.7636C39.1835 31.3818 38.8017 31.2546 38.5472 31ZM35.6199 36.0909C35.4926 35.9636 35.2381 35.8364 35.1108 35.7091C34.729 35.3273 34.6017 34.8182 34.729 34.1818C34.8563 33.6727 35.1108 33.1636 35.7472 32.5273C36.3835 32.0182 36.8926 31.6364 37.4017 31.6364C37.529 31.6364 37.529 31.6364 37.6563 31.6364C38.1654 31.6364 38.4199 31.7636 38.8017 32.1455C39.1835 32.5273 39.3108 33.0364 39.1835 33.6727C39.0563 34.1818 38.6745 34.6909 38.1654 35.2C37.6563 35.7091 37.0199 36.0909 36.5108 36.0909C36.2563 36.2182 35.8745 36.2182 35.6199 36.0909Z" fill="#1D1D1B"/>
<path d="M32.945 25.2727C33.5814 25.9091 34.2178 26.1637 34.9814 26.1637C34.9814 26.1637 34.9814 26.1637 35.1087 26.1637C35.8723 26.1637 36.7632 25.7818 37.5268 25.1454C38.2905 24.3818 38.6723 23.6182 38.7996 22.8545C38.9268 22.0909 38.545 21.3274 38.0359 20.691C37.7814 20.3092 37.3996 20.1819 37.145 20.0546C36.7632 19.8001 36.3814 19.8 35.8723 19.8C35.1087 19.8 34.2178 20.1818 33.4541 20.8182C32.6905 21.5818 32.3087 22.3454 32.1814 23.1091C31.9268 23.8727 32.1814 24.5091 32.945 25.2727ZM35.9996 20.691C36.3814 20.691 36.7632 20.9455 37.2723 21.2001C37.6541 21.5819 37.7814 22.091 37.6541 22.7274C37.5268 23.2365 37.145 23.7454 36.6359 24.3818C35.9996 24.8909 35.4905 25.2727 34.9814 25.2727C34.5996 25.4 34.345 25.2727 34.0905 25.1454C33.8359 25.0182 33.7087 24.8909 33.5814 24.7636C33.1996 24.3818 33.0723 23.8728 33.1996 23.2365C33.3268 22.7274 33.7087 22.2183 34.2178 21.5819C34.8541 21.0728 35.3632 20.691 35.8723 20.691C35.745 20.691 35.8723 20.691 35.9996 20.691Z" fill="#1D1D1B"/>
</g>
</svg>
