<svg width="58" height="57" viewBox="0 0 58 57" fill="none" xmlns="http://www.w3.org/2000/svg">
<mask id="mask0_6314_2840" style="mask-type:luminance" maskUnits="userSpaceOnUse" x="1" y="0" width="56" height="57">
<path d="M57 0.199951H1V56.2H57V0.199951Z" fill="white"/>
</mask>
<g mask="url(#mask0_6314_2840)">
<mask id="mask1_6314_2840" style="mask-type:luminance" maskUnits="userSpaceOnUse" x="1" y="0" width="56" height="57">
<path d="M57 0.199951H1V56.1999H57V0.199951Z" fill="white"/>
</mask>
<g mask="url(#mask1_6314_2840)">
<path d="M39.5016 23.125H7.47656V48.85H39.5016V23.125Z" fill="#634C9F"/>
<path d="M39.6758 30.475H46.6758L54.5508 45.525C55.4258 47.1 54.2008 48.85 52.6258 48.85H38.8008" stroke="#1D1D1B" stroke-width="1.5" stroke-miterlimit="10" stroke-linecap="round" stroke-linejoin="round"/>
<path d="M15.3523 54.2749C17.6273 54.2749 19.5523 52.3499 19.5523 49.8999C19.5523 47.4499 17.6273 45.5249 15.3523 45.5249C13.0773 45.5249 11.1523 47.4499 11.1523 49.8999C11.1523 52.3499 13.0773 54.2749 15.3523 54.2749Z" stroke="#1D1D1B" stroke-width="1.5" stroke-miterlimit="10" stroke-linecap="round" stroke-linejoin="round"/>
<path d="M46.1492 54.2749C48.4242 54.2749 50.3492 52.3499 50.3492 49.8999C50.3492 47.4499 48.4242 45.5249 46.1492 45.5249C43.8742 45.5249 41.9492 47.4499 41.9492 49.8999C41.9492 52.3499 43.8742 54.2749 46.1492 54.2749Z" stroke="#1D1D1B" stroke-width="1.5" stroke-miterlimit="10" stroke-linecap="round" stroke-linejoin="round"/>
<path d="M5.72656 43.7749H18.8516" stroke="#1D1D1B" stroke-width="1.5" stroke-miterlimit="10" stroke-linecap="round" stroke-linejoin="round"/>
<path d="M3.10156 39.75H16.2266" stroke="#1D1D1B" stroke-width="1.5" stroke-miterlimit="10" stroke-linecap="round" stroke-linejoin="round"/>
<path d="M41.7742 27.8499C48.9492 27.8499 54.7242 22.0749 54.7242 14.8999C54.7242 7.72495 48.9492 1.94995 41.7742 1.94995C34.5992 1.94995 28.8242 7.72495 28.8242 14.8999C28.8242 21.8999 34.5992 27.8499 41.7742 27.8499Z" fill="#FFB709"/>
<path d="M36.1758 12.6249L41.2508 22.4249L48.4258 8.94995" stroke="#1D1D1B" stroke-width="1.5" stroke-miterlimit="10" stroke-linecap="round" stroke-linejoin="round"/>
</g>
</g>
</svg>
