<svg width="149" height="39" viewBox="0 0 149 39" fill="none" xmlns="http://www.w3.org/2000/svg">
<path d="M22.3583 38.6274C31.1711 38.6274 38.3154 31.4831 38.3154 22.6703V11.0633C38.3154 7.55193 35.4689 4.70543 31.9575 4.70543H12.7591C9.24764 4.70543 6.40114 7.55193 6.40114 11.0633V22.6703C6.40114 31.4831 13.5454 38.6274 22.3583 38.6274Z" fill="#634C9F"/>
<path d="M15.0293 23.5561C15.3618 25.0522 16.3592 27.0467 17.5228 27.3792C24.2063 29.6579 31.3065 29.5767 38.3157 29.6726L38.3154 11.0633C38.3154 7.55193 35.4689 4.70543 31.9575 4.70543H12.7591C10.8626 4.70543 9.16146 5.53673 7.99669 6.8536C13.5007 10.2033 13.3095 17.6146 15.0293 23.5561Z" fill="#FACC15"/>
<path d="M36.7976 30.5977C36.6699 30.5977 36.5415 30.5926 36.4123 30.5821L20.0381 29.2454C17.5265 29.0403 15.4061 27.2658 14.7617 24.8299L11.5694 12.7637C11.0034 10.6182 10.4179 8.39986 7.9167 7.7278L0.79662 6.26399C0.257208 6.15312 -0.090377 5.62584 0.0206638 5.08626C0.131538 4.54668 0.659649 4.19926 1.1984 4.31014L8.39926 5.79207C12.0463 6.75187 12.8854 9.9325 13.4982 12.2549L13.5391 12.4101L16.6901 24.3198C17.1188 25.9403 18.5294 27.1207 20.2003 27.2574L36.5747 28.594C37.8766 28.7004 39.0729 27.8636 39.4202 26.6049L42.4368 15.6702L21.5278 13.9526C21.0755 13.9158 20.6488 14.0925 20.3559 14.4385C20.063 14.7845 19.9588 15.2349 20.07 15.6744L21.0032 19.3651C21.3117 20.5849 22.36 21.4892 23.612 21.6154L33.4695 22.6088C33.9729 22.6595 34.4327 22.3598 34.5906 21.8805C34.6927 21.57 34.6486 21.235 34.4694 20.9616C34.29 20.6882 34.0005 20.5139 33.6748 20.4839L25.3966 19.7182C24.8483 19.6675 24.4448 19.1818 24.4955 18.6332C24.5462 18.0849 25.0293 17.6811 25.5805 17.7319L33.8587 18.4976C34.7927 18.584 35.6234 19.0836 36.1377 19.8682C36.6518 20.6526 36.7785 21.6137 36.4851 22.5045C36.0321 23.8798 34.7081 24.7388 33.2696 24.5934L23.412 23.6C21.328 23.39 19.5828 21.8847 19.0693 19.8542L18.1361 16.1634C17.865 15.0917 18.1193 13.9933 18.8336 13.1497C19.5479 12.3059 20.5893 11.8745 21.6911 11.9645L45 13.8793L41.3431 27.1353C40.7758 29.1914 38.9001 30.5976 36.7976 30.5977Z" fill="#634C9F"/>
<path d="M22.3701 33.0547C22.3701 34.5543 21.1545 35.7699 19.6549 35.7699C18.1555 35.7699 16.9399 34.5543 16.9399 33.0547C16.9399 31.5552 18.1555 30.3397 19.6549 30.3397C21.1545 30.3397 22.3701 31.5552 22.3701 33.0547Z" fill="#DC2626"/>
<path d="M35.8678 33.8801C35.8678 34.7862 35.1334 35.5206 34.2275 35.5206C33.3215 35.5206 32.5871 34.7862 32.5871 33.8801C32.5871 32.9741 33.3215 32.2397 34.2275 32.2397C35.1334 32.2397 35.8678 32.9741 35.8678 33.8801Z" fill="#DC2626"/>
<path d="M19.5174 8.92797C19.5174 10.2438 18.4507 11.3105 17.1348 11.3105C15.819 11.3105 14.7521 10.2438 14.7521 8.92797C14.7521 7.6121 15.819 6.54524 17.1348 6.54524C18.4507 6.54524 19.5174 7.6121 19.5174 8.92797Z" fill="#F25321"/>
<path d="M23.9357 3.22068C23.9357 4.9995 22.4938 6.44136 20.715 6.44136C18.9363 6.44136 17.4943 4.9995 17.4943 3.22068C17.4943 1.44203 18.9363 0 20.715 0C22.4938 0 23.9357 1.44203 23.9357 3.22068Z" fill="#634C9F"/>
<path d="M23.1551 8.13374C23.1551 8.75593 22.6508 9.26043 22.0284 9.26043C21.4062 9.26043 20.9017 8.75593 20.9017 8.13374C20.9017 7.51154 21.4062 7.00704 22.0284 7.00704C22.6508 7.00704 23.1551 7.51154 23.1551 8.13374Z" fill="#634C9F"/>
<path d="M30.1477 4.85536C30.1477 6.29357 28.9817 7.4595 27.5434 7.4595C26.1051 7.4595 24.9393 6.29357 24.9393 4.85536C24.9393 3.41698 26.1051 2.25106 27.5434 2.25106C28.9817 2.25106 30.1477 3.41698 30.1477 4.85536Z" fill="#F25321"/>
<path d="M32.6478 9.74516C32.6478 10.9157 31.6988 11.8646 30.5284 11.8646C29.3578 11.8646 28.409 10.9157 28.409 9.74516C28.409 8.57474 29.3578 7.62574 30.5284 7.62574C31.6988 7.62574 32.6478 8.57474 32.6478 9.74516Z" fill="#F25321"/>
<path d="M41.6451 10.6734C41.6451 11.844 40.6961 12.7928 39.5257 12.7928C38.3551 12.7928 37.4062 11.844 37.4062 10.6734C37.4062 9.50296 38.3551 8.55396 39.5257 8.55396C40.6961 8.55396 41.6451 9.50296 41.6451 10.6734Z" fill="#634C9F"/>
<path d="M26.9133 10.1192C26.9133 10.8996 26.2808 11.5321 25.5004 11.5321C24.7201 11.5321 24.0874 10.8996 24.0874 10.1192C24.0874 9.33889 24.7201 8.70622 25.5004 8.70622C26.2808 8.70622 26.9133 9.33889 26.9133 10.1192Z" fill="#634C9F"/>
<path d="M35.4736 4.99384C35.4736 5.97309 34.6797 6.767 33.7004 6.767C32.7214 6.767 31.9273 5.97309 31.9273 4.99384C31.9273 4.01459 32.7214 3.22068 33.7004 3.22068C34.6797 3.22068 35.4736 4.01459 35.4736 4.99384Z" fill="#634C9F"/>
<path d="M36.2216 10.6734C36.2216 11.4536 35.5891 12.0863 34.8087 12.0863C34.0284 12.0863 33.3957 11.4536 33.3957 10.6734C33.3957 9.89308 34.0284 9.26042 34.8087 9.26042C35.5891 9.26042 36.2216 9.89308 36.2216 10.6734Z" fill="#634C9F"/>
<path d="M37.8579 7.4595C37.8579 8.11743 37.3245 8.65086 36.6666 8.65086C36.0086 8.65086 35.4754 8.11743 35.4754 7.4595C35.4754 6.80156 36.0086 6.2683 36.6666 6.2683C37.3245 6.2683 37.8579 6.80156 37.8579 7.4595Z" fill="#F25321"/>
<path d="M136.148 8.07457C135.757 8.07457 135.42 7.99171 135.138 7.82599C134.858 7.65862 134.643 7.42661 134.492 7.12997C134.343 6.83333 134.268 6.49195 134.268 6.10582C134.268 5.71473 134.344 5.37169 134.495 5.0767C134.647 4.78007 134.863 4.54889 135.143 4.38317C135.424 4.21579 135.757 4.1321 136.143 4.1321C136.476 4.1321 136.768 4.19259 137.018 4.31357C137.268 4.43454 137.466 4.6044 137.612 4.82315C137.758 5.0419 137.838 5.29877 137.853 5.59375H136.854C136.826 5.40317 136.751 5.24988 136.63 5.13388C136.511 5.01622 136.354 4.95739 136.16 4.95739C135.996 4.95739 135.853 5.00213 135.73 5.09162C135.609 5.17945 135.515 5.30788 135.447 5.47692C135.379 5.64595 135.345 5.85062 135.345 6.09091C135.345 6.33452 135.378 6.54167 135.444 6.71236C135.512 6.88305 135.607 7.01314 135.73 7.10263C135.853 7.19212 135.996 7.23686 136.16 7.23686C136.281 7.23686 136.39 7.212 136.486 7.16229C136.584 7.11257 136.664 7.04048 136.727 6.94602C136.792 6.84991 136.834 6.73473 136.854 6.6005H137.853C137.836 6.89216 137.757 7.14903 137.614 7.37109C137.473 7.5915 137.279 7.76385 137.03 7.88814C136.782 8.01243 136.487 8.07457 136.148 8.07457ZM140.256 8.07457C139.87 8.07457 139.536 7.99254 139.254 7.82848C138.974 7.66276 138.758 7.43241 138.606 7.13743C138.453 6.84079 138.377 6.49692 138.377 6.10582C138.377 5.71141 138.453 5.36671 138.606 5.07173C138.758 4.77509 138.974 4.54474 139.254 4.38068C139.536 4.21496 139.87 4.1321 140.256 4.1321C140.642 4.1321 140.975 4.21496 141.255 4.38068C141.537 4.54474 141.754 4.77509 141.907 5.07173C142.059 5.36671 142.135 5.71141 142.135 6.10582C142.135 6.49692 142.059 6.84079 141.907 7.13743C141.754 7.43241 141.537 7.66276 141.255 7.82848C140.975 7.99254 140.642 8.07457 140.256 8.07457ZM140.261 7.25426C140.437 7.25426 140.583 7.20455 140.701 7.10511C140.819 7.00402 140.907 6.86648 140.967 6.69247C141.028 6.51847 141.059 6.32043 141.059 6.09837C141.059 5.8763 141.028 5.67827 140.967 5.50426C140.907 5.33026 140.819 5.19271 140.701 5.09162C140.583 4.99053 140.437 4.93999 140.261 4.93999C140.084 4.93999 139.935 4.99053 139.814 5.09162C139.694 5.19271 139.604 5.33026 139.543 5.50426C139.483 5.67827 139.453 5.8763 139.453 6.09837C139.453 6.32043 139.483 6.51847 139.543 6.69247C139.604 6.86648 139.694 7.00402 139.814 7.10511C139.935 7.20455 140.084 7.25426 140.261 7.25426ZM142.824 8V4.18182H143.833V4.85547H143.878C143.957 4.63175 144.09 4.45526 144.276 4.32599C144.461 4.19673 144.683 4.1321 144.942 4.1321C145.204 4.1321 145.427 4.19756 145.611 4.32848C145.794 4.45774 145.917 4.6334 145.978 4.85547H146.018C146.096 4.63672 146.237 4.46188 146.441 4.33097C146.646 4.19839 146.889 4.1321 147.169 4.1321C147.525 4.1321 147.815 4.24562 148.037 4.47266C148.26 4.69803 148.372 5.01787 148.372 5.43217V8H147.316V5.64098C147.316 5.42886 147.259 5.26977 147.147 5.16371C147.034 5.05765 146.893 5.00462 146.724 5.00462C146.532 5.00462 146.382 5.06593 146.274 5.18857C146.167 5.30954 146.113 5.46946 146.113 5.66832V8H145.086V5.61861C145.086 5.43134 145.032 5.2822 144.924 5.17116C144.818 5.06013 144.678 5.00462 144.504 5.00462C144.387 5.00462 144.281 5.03445 144.186 5.09411C144.093 5.15211 144.02 5.23414 143.965 5.3402C143.91 5.4446 143.883 5.56723 143.883 5.7081V8H142.824Z" fill="#634C9F"/>
<path d="M58.5057 9.54545H62.1534V21.7159C62.1534 22.8409 61.9006 23.8182 61.3949 24.6477C60.8949 25.4773 60.1989 26.1165 59.3068 26.5653C58.4148 27.0142 57.3778 27.2386 56.196 27.2386C55.1449 27.2386 54.1903 27.054 53.3324 26.6847C52.4801 26.3097 51.804 25.7415 51.304 24.9801C50.804 24.2131 50.5568 23.25 50.5625 22.0909H54.2358C54.2472 22.5511 54.3409 22.946 54.517 23.2756C54.6989 23.5994 54.946 23.8494 55.2585 24.0256C55.5767 24.196 55.9517 24.2812 56.3835 24.2812C56.8381 24.2812 57.2216 24.1847 57.5341 23.9915C57.8523 23.7926 58.0938 23.5028 58.2585 23.1222C58.4233 22.7415 58.5057 22.2727 58.5057 21.7159V9.54545ZM65.1364 27V13.9091H68.767V27H65.1364ZM66.9602 12.2216C66.4205 12.2216 65.9574 12.0426 65.571 11.6847C65.1903 11.321 65 10.8864 65 10.3807C65 9.88068 65.1903 9.4517 65.571 9.09375C65.9574 8.73011 66.4205 8.54829 66.9602 8.54829C67.5 8.54829 67.9602 8.73011 68.3409 9.09375C68.7273 9.4517 68.9205 9.88068 68.9205 10.3807C68.9205 10.8864 68.7273 11.321 68.3409 11.6847C67.9602 12.0426 67.5 12.2216 66.9602 12.2216ZM75.3061 19.4318V27H71.6754V13.9091H75.1357V16.2188H75.2891C75.5788 15.4574 76.0646 14.8551 76.7464 14.4119C77.4283 13.9631 78.255 13.7386 79.2266 13.7386C80.1357 13.7386 80.9283 13.9375 81.6044 14.3352C82.2805 14.733 82.8061 15.3011 83.1811 16.0398C83.5561 16.7727 83.7436 17.6477 83.7436 18.6648V27H80.1129V19.3125C80.1186 18.5114 79.9141 17.8864 79.4993 17.4375C79.0845 16.983 78.5135 16.7557 77.7862 16.7557C77.2976 16.7557 76.8658 16.8608 76.4908 17.071C76.1214 17.2812 75.8317 17.5881 75.6214 17.9915C75.4169 18.3892 75.3118 18.8693 75.3061 19.4318ZM96.142 14.5653C96.0739 13.8778 95.7813 13.3437 95.2642 12.9631C94.7472 12.5824 94.0455 12.392 93.1591 12.392C92.5568 12.392 92.0483 12.4773 91.6335 12.6477C91.2188 12.8125 90.9006 13.0426 90.679 13.3381C90.4631 13.6335 90.3551 13.9688 90.3551 14.3438C90.3438 14.6562 90.4091 14.929 90.5511 15.1619C90.6989 15.3949 90.9006 15.5966 91.1562 15.767C91.4119 15.9318 91.7074 16.0767 92.0426 16.2017C92.3778 16.321 92.7358 16.4233 93.1165 16.5085L94.6847 16.8835C95.446 17.054 96.1449 17.2812 96.7812 17.5653C97.4176 17.8494 97.9688 18.1989 98.4347 18.6136C98.9006 19.0284 99.2614 19.517 99.517 20.0795C99.7784 20.642 99.9119 21.2869 99.9176 22.0142C99.9119 23.0824 99.6392 24.0085 99.0994 24.7926C98.5653 25.571 97.7926 26.1761 96.7812 26.608C95.7756 27.0341 94.5625 27.2472 93.142 27.2472C91.733 27.2472 90.5057 27.0312 89.4602 26.5994C88.4205 26.1676 87.608 25.5284 87.0227 24.6818C86.4432 23.8295 86.1392 22.7756 86.1108 21.5199H89.6818C89.7216 22.1051 89.8892 22.5937 90.1847 22.9858C90.4858 23.3722 90.8864 23.6648 91.3864 23.8636C91.892 24.0568 92.4631 24.1534 93.0994 24.1534C93.7244 24.1534 94.267 24.0625 94.7273 23.8807C95.1932 23.6989 95.554 23.446 95.8097 23.1222C96.0653 22.7983 96.1932 22.4261 96.1932 22.0057C96.1932 21.6136 96.0767 21.2841 95.8438 21.017C95.6165 20.75 95.2813 20.5227 94.8381 20.3352C94.4006 20.1477 93.8636 19.9773 93.2273 19.8239L91.3267 19.3466C89.8551 18.9886 88.6932 18.429 87.8409 17.6676C86.9886 16.9062 86.5653 15.8807 86.571 14.5909C86.5653 13.5341 86.8466 12.6108 87.4148 11.821C87.9886 11.0312 88.7756 10.4148 89.7756 9.97159C90.7756 9.52841 91.9119 9.30682 93.1847 9.30682C94.4801 9.30682 95.6108 9.52841 96.5767 9.97159C97.5483 10.4148 98.304 11.0312 98.8438 11.821C99.3835 12.6108 99.6619 13.5256 99.679 14.5653H96.142ZM109.295 13.9091V16.6364H101.411V13.9091H109.295ZM103.201 10.7727H106.832V22.9773C106.832 23.3125 106.883 23.5739 106.985 23.7614C107.087 23.9432 107.229 24.071 107.411 24.1449C107.599 24.2187 107.815 24.2557 108.059 24.2557C108.229 24.2557 108.4 24.2415 108.57 24.2131C108.741 24.179 108.871 24.1534 108.962 24.1364L109.533 26.8381C109.352 26.8949 109.096 26.9602 108.766 27.0341C108.437 27.1136 108.036 27.1619 107.565 27.179C106.69 27.2131 105.923 27.0966 105.263 26.8295C104.61 26.5625 104.102 26.1477 103.738 25.5852C103.374 25.0227 103.195 24.3125 103.201 23.4545V10.7727ZM117.434 27.2557C116.11 27.2557 114.965 26.9744 113.999 26.4119C113.039 25.8437 112.298 25.054 111.775 24.0426C111.252 23.0256 110.991 21.8466 110.991 20.5057C110.991 19.1534 111.252 17.9716 111.775 16.9602C112.298 15.9432 113.039 15.1534 113.999 14.5909C114.965 14.0227 116.11 13.7386 117.434 13.7386C118.758 13.7386 119.9 14.0227 120.86 14.5909C121.826 15.1534 122.57 15.9432 123.093 16.9602C123.616 17.9716 123.877 19.1534 123.877 20.5057C123.877 21.8466 123.616 23.0256 123.093 24.0426C122.57 25.054 121.826 25.8437 120.86 26.4119C119.9 26.9744 118.758 27.2557 117.434 27.2557ZM117.451 24.4432C118.053 24.4432 118.556 24.2727 118.96 23.9318C119.363 23.5852 119.667 23.1136 119.871 22.517C120.082 21.9205 120.187 21.2415 120.187 20.4801C120.187 19.7188 120.082 19.0398 119.871 18.4432C119.667 17.8466 119.363 17.375 118.96 17.0284C118.556 16.6818 118.053 16.5085 117.451 16.5085C116.843 16.5085 116.332 16.6818 115.917 17.0284C115.508 17.375 115.198 17.8466 114.988 18.4432C114.783 19.0398 114.681 19.7188 114.681 20.4801C114.681 21.2415 114.783 21.9205 114.988 22.517C115.198 23.1136 115.508 23.5852 115.917 23.9318C116.332 24.2727 116.843 24.4432 117.451 24.4432ZM126.238 27V13.9091H129.758V16.1932H129.894C130.133 15.3807 130.533 14.767 131.096 14.3523C131.658 13.9318 132.306 13.7216 133.039 13.7216C133.221 13.7216 133.417 13.733 133.627 13.7557C133.837 13.7784 134.022 13.8097 134.181 13.8494V17.071C134.011 17.0199 133.775 16.9744 133.474 16.9347C133.173 16.8949 132.897 16.875 132.647 16.875C132.113 16.875 131.636 16.9915 131.215 17.2244C130.8 17.4517 130.471 17.7699 130.227 18.179C129.988 18.5881 129.869 19.0597 129.869 19.5938V27H126.238ZM141.415 27.2557C140.068 27.2557 138.909 26.983 137.938 26.4375C136.972 25.8864 136.227 25.108 135.705 24.1023C135.182 23.0909 134.92 21.8949 134.92 20.5142C134.92 19.1676 135.182 17.9858 135.705 16.9688C136.227 15.9517 136.963 15.1591 137.912 14.5909C138.866 14.0227 139.986 13.7386 141.27 13.7386C142.134 13.7386 142.938 13.8778 143.682 14.1562C144.432 14.429 145.085 14.8409 145.642 15.392C146.205 15.9432 146.642 16.6364 146.955 17.4716C147.267 18.3011 147.423 19.2727 147.423 20.3864V21.3835H136.369V19.1335H144.006C144.006 18.6108 143.892 18.1477 143.665 17.7443C143.438 17.3409 143.122 17.0256 142.719 16.7983C142.321 16.5653 141.858 16.4489 141.33 16.4489C140.778 16.4489 140.29 16.5767 139.864 16.8324C139.443 17.0824 139.114 17.4205 138.875 17.8466C138.636 18.267 138.514 18.7358 138.509 19.2528V21.392C138.509 22.0398 138.628 22.5994 138.866 23.071C139.111 23.5426 139.455 23.9062 139.898 24.1619C140.341 24.4176 140.866 24.5455 141.474 24.5455C141.878 24.5455 142.247 24.4886 142.582 24.375C142.918 24.2614 143.205 24.0909 143.443 23.8636C143.682 23.6364 143.864 23.358 143.989 23.0284L147.347 23.25C147.176 24.0568 146.827 24.7614 146.298 25.3636C145.776 25.9602 145.099 26.4261 144.27 26.7614C143.446 27.0909 142.494 27.2557 141.415 27.2557Z" fill="black"/>
</svg>
