<svg width="45" height="39" viewBox="0 0 45 39" fill="none" xmlns="http://www.w3.org/2000/svg">
<path d="M22.3583 38.6274C31.1711 38.6274 38.3154 31.4832 38.3154 22.6703V11.0633C38.3154 7.55193 35.4689 4.70543 31.9575 4.70543H12.7591C9.24764 4.70543 6.40114 7.55193 6.40114 11.0633V22.6703C6.40114 31.4831 13.5454 38.6274 22.3583 38.6274Z" fill="#634C9F"/>
<path d="M15.0293 23.5561C15.3618 25.0522 16.3592 27.0467 17.5228 27.3792C24.2063 29.6579 31.3065 29.5767 38.3157 29.6726L38.3154 11.0633C38.3154 7.55193 35.4689 4.70543 31.9575 4.70543H12.7591C10.8626 4.70543 9.16146 5.53673 7.99669 6.8536C13.5007 10.2033 13.3095 17.6146 15.0293 23.5561Z" fill="#FACC15"/>
<path d="M36.7976 30.5977C36.6699 30.5977 36.5415 30.5926 36.4123 30.5821L20.0381 29.2454C17.5265 29.0403 15.4061 27.2658 14.7617 24.8299L11.5694 12.7637C11.0034 10.6182 10.4179 8.39986 7.9167 7.7278L0.79662 6.26399C0.257208 6.15312 -0.090377 5.62584 0.0206638 5.08626C0.131538 4.54668 0.659649 4.19926 1.1984 4.31014L8.39926 5.79207C12.0463 6.75187 12.8854 9.9325 13.4982 12.2549L13.5391 12.4101L16.6901 24.3198C17.1188 25.9403 18.5294 27.1207 20.2003 27.2574L36.5747 28.594C37.8766 28.7004 39.0729 27.8636 39.4202 26.6049L42.4368 15.6702L21.5278 13.9526C21.0755 13.9158 20.6488 14.0925 20.3559 14.4385C20.063 14.7845 19.9588 15.2349 20.07 15.6744L21.0032 19.3651C21.3117 20.5849 22.36 21.4892 23.612 21.6154L33.4695 22.6088C33.9729 22.6595 34.4327 22.3598 34.5906 21.8805C34.6927 21.57 34.6486 21.2351 34.4694 20.9616C34.2901 20.6882 34.0005 20.5139 33.6748 20.4839L25.3966 19.7182C24.8483 19.6675 24.4448 19.1818 24.4955 18.6332C24.5462 18.0849 25.0293 17.6811 25.5805 17.7319L33.8587 18.4976C34.7927 18.584 35.6234 19.0836 36.1377 19.8682C36.6518 20.6526 36.7785 21.6137 36.4851 22.5045C36.0321 23.8797 34.7081 24.7388 33.2696 24.5934L23.412 23.6C21.328 23.39 19.5828 21.8847 19.0693 19.8542L18.1361 16.1634C17.865 15.0917 18.1193 13.9933 18.8336 13.1497C19.5479 12.3059 20.5893 11.8745 21.6911 11.9645L45 13.8793L41.3431 27.1353C40.7758 29.1914 38.9001 30.5976 36.7976 30.5977Z" fill="#634C9F"/>
<path d="M22.3701 33.0547C22.3701 34.5543 21.1545 35.7699 19.6549 35.7699C18.1555 35.7699 16.9399 34.5543 16.9399 33.0547C16.9399 31.5552 18.1555 30.3397 19.6549 30.3397C21.1545 30.3397 22.3701 31.5552 22.3701 33.0547Z" fill="#DC2626"/>
<path d="M35.8678 33.8801C35.8678 34.7862 35.1334 35.5206 34.2275 35.5206C33.3215 35.5206 32.5871 34.7862 32.5871 33.8801C32.5871 32.9741 33.3215 32.2397 34.2275 32.2397C35.1334 32.2397 35.8678 32.9741 35.8678 33.8801Z" fill="#DC2626"/>
<path d="M19.5174 8.92797C19.5174 10.2438 18.4507 11.3105 17.1348 11.3105C15.819 11.3105 14.7521 10.2438 14.7521 8.92797C14.7521 7.6121 15.819 6.54524 17.1348 6.54524C18.4507 6.54524 19.5174 7.6121 19.5174 8.92797Z" fill="#F25321"/>
<path d="M23.9357 3.22068C23.9357 4.9995 22.4938 6.44136 20.715 6.44136C18.9363 6.44136 17.4943 4.9995 17.4943 3.22068C17.4943 1.44203 18.9363 0 20.715 0C22.4938 0 23.9357 1.44203 23.9357 3.22068Z" fill="#634C9F"/>
<path d="M23.1551 8.13374C23.1551 8.75593 22.6508 9.26043 22.0284 9.26043C21.4062 9.26043 20.9017 8.75593 20.9017 8.13374C20.9017 7.51154 21.4062 7.00704 22.0284 7.00704C22.6508 7.00704 23.1551 7.51154 23.1551 8.13374Z" fill="#634C9F"/>
<path d="M30.1477 4.85536C30.1477 6.29357 28.9817 7.4595 27.5434 7.4595C26.1051 7.4595 24.9393 6.29357 24.9393 4.85536C24.9393 3.41698 26.1051 2.25106 27.5434 2.25106C28.9817 2.25106 30.1477 3.41698 30.1477 4.85536Z" fill="#F25321"/>
<path d="M32.6478 9.74516C32.6478 10.9157 31.6988 11.8646 30.5284 11.8646C29.3578 11.8646 28.409 10.9157 28.409 9.74516C28.409 8.57474 29.3578 7.62574 30.5284 7.62574C31.6988 7.62574 32.6478 8.57474 32.6478 9.74516Z" fill="#F25321"/>
<path d="M41.6451 10.6734C41.6451 11.844 40.6961 12.7928 39.5257 12.7928C38.3551 12.7928 37.4062 11.844 37.4062 10.6734C37.4062 9.50296 38.3551 8.55396 39.5257 8.55396C40.6961 8.55396 41.6451 9.50296 41.6451 10.6734Z" fill="#634C9F"/>
<path d="M26.9133 10.1192C26.9133 10.8996 26.2808 11.5321 25.5004 11.5321C24.7201 11.5321 24.0874 10.8996 24.0874 10.1192C24.0874 9.33889 24.7201 8.70622 25.5004 8.70622C26.2808 8.70622 26.9133 9.33889 26.9133 10.1192Z" fill="#634C9F"/>
<path d="M35.4736 4.99384C35.4736 5.97309 34.6797 6.767 33.7004 6.767C32.7214 6.767 31.9273 5.97309 31.9273 4.99384C31.9273 4.01459 32.7214 3.22068 33.7004 3.22068C34.6797 3.22068 35.4736 4.01459 35.4736 4.99384Z" fill="#634C9F"/>
<path d="M36.2216 10.6734C36.2216 11.4536 35.5891 12.0863 34.8087 12.0863C34.0284 12.0863 33.3957 11.4536 33.3957 10.6734C33.3957 9.89308 34.0284 9.26042 34.8087 9.26042C35.5891 9.26042 36.2216 9.89308 36.2216 10.6734Z" fill="#634C9F"/>
<path d="M37.8579 7.4595C37.8579 8.11743 37.3245 8.65086 36.6666 8.65086C36.0086 8.65086 35.4754 8.11743 35.4754 7.4595C35.4754 6.80156 36.0086 6.2683 36.6666 6.2683C37.3245 6.2683 37.8579 6.80156 37.8579 7.4595Z" fill="#F25321"/>
</svg>
